<svg width="315" height="64" viewBox="0 0 315 64" fill="none" xmlns="http://www.w3.org/2000/svg">
<g id="cloud_1">
<path id="Vector 17" d="M10.7815 44.9024C25.256 32.9422 42.6614 20.299 59.5276 38.3054C59.5276 38.3054 60.065 31.1087 64.5394 23.738C73.3161 9.28006 106.456 8.26365 106.456 23.738C106.456 37.6801 137.906 29.7033 137.906 55.5295C137.906 61.7211 119.377 63.2723 106.456 63.6047H48.6757C40.8742 63.4385 -8.20131 60.5878 10.7815 44.9024Z" fill="#F3F3F3"/>
<path id="Vector 19" d="M87.9121 45.9831C94.6666 35.2797 96.5965 44.1971 103.351 42.77C108.015 41.3428 107.316 26.6825 112.606 20.4471C120.326 11.3492 145.346 20.4471 136.913 35.2797C128.693 49.7381 162.213 26.7169 162.213 54.4402C162.213 61.0866 149.99 62.7518 141.466 63.1085H103.351C98.2048 62.9301 81.0504 56.8561 87.9121 45.9831Z" fill="#F3F3F3"/>
<path id="Vector 18" d="M251.504 32.9775C244.559 23.0563 240.095 34.3003 233.15 32.9775C228.354 31.6547 235.134 28.8802 224.717 7.54949C219.635 -2.85657 192.472 -4.35605 189.496 14.9904C186.788 32.5931 175.11 15.1192 175.11 40.8166C175.11 46.9774 187.677 48.5208 196.441 48.8515H235.63C240.921 48.6862 258.559 43.056 251.504 32.9775Z" fill="#F3F3F3"/>
<path id="Vector 20" d="M132.212 47.6758C128.264 18.8222 140.763 20.1496 147.413 18.8222C148.246 18.9787 149.002 19.1514 149.685 19.338C159.683 -0.896031 191.53 14.3044 193.821 22.3066C198.097 37.2399 205.37 29.7559 205.37 55.542C205.37 61.724 193.335 63.2728 184.943 63.6047H147.413C142.346 63.4387 133.884 59.8957 132.212 47.6758Z" fill="#F3F3F3"/>
<path id="Vector 21" d="M207.5 47.2277C216.506 37.3022 219.079 38.6256 228.085 37.3022C234.303 35.9788 242.259 33.159 249.314 27.3768C259.606 18.94 275.497 23.5745 278.905 32.3395C284.695 47.2277 306.567 29.3618 306.567 55.0702C306.567 61.2336 290.27 62.7777 278.905 63.1086H228.085C221.223 62.9431 198.351 57.3105 207.5 47.2277Z" fill="#F3F3F3"/>
<path id="Vector 22" d="M185.681 47.2173C192.626 37.2961 194.611 38.6189 201.555 37.2961C206.351 35.9732 212.486 33.1546 217.926 27.3748C225.863 18.9418 238.116 23.5742 240.744 32.3354C245.209 47.2173 262.075 29.359 262.075 55.0564C262.075 61.2172 249.508 62.7606 240.744 63.0913H201.555C196.264 62.926 178.627 57.2958 185.681 47.2173Z" fill="#F3F3F3"/>
<rect id="Rectangle 4" y="44.2581" width="315" height="19.3465" rx="9.67323" fill="#F3F3F3"/>
</g>
</svg>
