<svg width="186" height="38" viewBox="0 0 186 38" fill="none" xmlns="http://www.w3.org/2000/svg">
<g id="cloud_3">
<path id="Vector 17" d="M179.634 26.5138C171.087 19.4516 160.809 11.9861 150.85 22.6184C150.85 22.6184 150.533 18.369 147.891 14.0167C142.709 5.47967 123.14 4.8795 123.14 14.0168C123.14 22.2492 104.57 17.5391 104.57 32.7888C104.57 36.4449 115.511 37.3608 123.14 37.557H157.258C161.865 37.4589 190.843 35.7756 179.634 26.5138Z" fill="#F3F3F3"/>
<path id="Vector 19" d="M134.09 27.1519C130.102 20.8318 128.962 26.0973 124.974 25.2547C122.22 24.412 122.633 15.7554 119.509 12.0735C114.95 6.70145 100.176 12.0736 105.156 20.8318C110.01 29.3692 90.2173 15.7757 90.2173 32.1456C90.2173 36.0702 97.4345 37.0534 102.467 37.2641H124.974C128.012 37.1588 138.142 33.5722 134.09 27.1519Z" fill="#F3F3F3"/>
<path id="Vector 18" d="M37.4929 19.4724C41.5937 13.6142 44.2299 20.2535 48.3307 19.4724C51.1622 18.6913 47.1591 17.0531 53.3102 4.45779C56.3111 -1.68674 72.3496 -2.57214 74.1071 8.85149C75.7062 19.2454 82.6016 8.92756 82.6016 24.1012C82.6016 27.739 75.1811 28.6504 70.0063 28.8457H46.8662C43.7417 28.748 33.3272 25.4235 37.4929 19.4724Z" fill="#F3F3F3"/>
<path id="Vector 20" d="M107.932 28.1514C110.263 11.114 102.883 11.8979 98.9559 11.1141C98.464 11.2065 98.018 11.3085 97.6146 11.4187C91.7107 -0.529086 72.9059 8.44643 71.5531 13.1715C69.0285 21.9893 64.7339 17.5702 64.7339 32.7962C64.7339 36.4466 71.8401 37.3611 76.7957 37.557H98.9559C101.948 37.4591 106.945 35.367 107.932 28.1514Z" fill="#F3F3F3"/>
<path id="Vector 21" d="M63.4765 27.8869C58.1586 22.0261 56.6392 22.8075 51.3212 22.0261C47.6494 21.2446 42.9516 19.5796 38.7862 16.1653C32.7086 11.1836 23.3257 13.9202 21.3131 19.0957C17.8944 27.8869 4.97953 17.3374 4.97953 32.5176C4.97953 36.157 14.6024 37.0687 21.3131 37.2641H51.3212C55.373 37.1664 68.8786 33.8405 63.4765 27.8869Z" fill="#F3F3F3"/>
<path id="Vector 22" d="M76.3595 27.8807C72.2587 22.0224 71.0871 22.8035 66.9863 22.0224C64.1548 21.2413 60.5322 19.577 57.3201 16.1642C52.6335 11.1847 45.3981 13.92 43.8461 19.0933C41.2099 27.8807 31.2508 17.3358 31.2508 32.5095C31.2508 36.1473 38.6713 37.0586 43.8461 37.2539H66.9863C70.1107 37.1563 80.5253 33.8318 76.3595 27.8807Z" fill="#F3F3F3"/>
<rect id="Rectangle 4" width="186" height="11.4236" rx="5.71181" transform="matrix(-1 0 0 1 186 26.1334)" fill="#F3F3F3"/>
</g>
</svg>
