<svg width="359" height="73" viewBox="0 0 359 73" fill="none" xmlns="http://www.w3.org/2000/svg">
<g id="cloud_2">
<path id="Vector 17" d="M346.712 51.1744C330.216 37.5436 310.38 23.1345 291.157 43.656C291.157 43.656 290.545 35.4541 285.446 27.0538C275.443 10.5763 237.674 9.41795 237.674 27.0538C237.674 42.9433 201.832 33.8523 201.832 63.286C201.832 70.3425 222.948 72.1103 237.674 72.4891H303.525C312.416 72.2997 368.347 69.0508 346.712 51.1744Z" fill="#F3F3F3"/>
<path id="Vector 19" d="M258.808 52.4061C251.11 40.2076 248.911 50.3706 241.212 48.7442C235.897 47.1177 236.694 30.4096 230.665 23.3032C221.867 12.9345 193.351 23.3032 202.962 40.2076C212.331 56.6857 174.129 30.4488 174.129 62.0445C174.129 69.6194 188.059 71.5171 197.773 71.9237H241.212C247.078 71.7204 266.628 64.7979 258.808 52.4061Z" fill="#F3F3F3"/>
<path id="Vector 18" d="M72.3654 37.5839C80.2803 26.2768 85.3685 39.0915 93.2835 37.5839C98.7486 36.0763 91.0221 32.9143 102.895 8.60402C108.686 -3.25558 139.643 -4.96451 143.035 17.0843C146.121 37.1458 159.43 17.2311 159.43 46.518C159.43 53.5393 145.108 55.2983 135.12 55.6752H90.4567C84.4263 55.4868 64.325 49.0702 72.3654 37.5839Z" fill="#F3F3F3"/>
<path id="Vector 20" d="M208.321 54.3353C212.82 21.4513 198.575 22.9641 190.996 21.4513C190.046 21.6297 189.185 21.8266 188.407 22.0392C177.012 -1.02118 140.716 16.3025 138.105 25.4225C133.232 42.4417 124.943 33.9123 124.943 63.3002C124.943 70.3458 138.659 72.1109 148.224 72.4891H190.996C196.771 72.3 206.415 68.2621 208.321 54.3353Z" fill="#F3F3F3"/>
<path id="Vector 21" d="M122.516 53.8246C112.252 42.5127 109.32 44.0209 99.0555 42.5127C91.9684 41.0044 82.9011 37.7907 74.8615 31.2008C63.1311 21.5856 45.0211 26.8674 41.1366 36.8567C34.5382 53.8246 9.61103 33.4631 9.61103 62.7625C9.61103 69.7868 28.1842 71.5466 41.1366 71.9237H99.0555C106.876 71.7352 132.943 65.3158 122.516 53.8246Z" fill="#F3F3F3"/>
<path id="Vector 22" d="M147.382 53.8127C139.467 42.5056 137.206 44.0133 129.291 42.5056C123.826 40.998 116.834 37.7857 110.634 31.1986C101.588 21.5876 87.6232 26.8671 84.6277 36.8521C79.5395 53.8127 60.3175 33.46 60.3175 62.7468C60.3175 69.7681 74.6398 71.5272 84.6277 71.9041H129.291C135.321 71.7156 155.422 65.299 147.382 53.8127Z" fill="#F3F3F3"/>
<rect id="Rectangle 4" width="359" height="22.0488" rx="11.0244" transform="matrix(-1 0 0 1 359 50.4402)" fill="#F3F3F3"/>
</g>
</svg>
