<svg width="1336" height="409" viewBox="0 0 1336 409" fill="none" xmlns="http://www.w3.org/2000/svg">
<g id="mountain_3">
<path id="mountain_3_2" d="M1249.5 36C1289.32 36.7995 1336 179.5 1336 238.842V307.793C891.121 309.458 1.36328 311.79 1.36328 307.793V281.811V231.847C1.36328 176.524 21.0095 96.3987 38.0363 73.415C55.063 50.4313 73.849 -23.9667 121 23C139.331 41.2598 180.714 109.176 197.758 73.415C213.475 40.4384 235.961 82.2409 248.769 99.3568C268.416 125.611 270.893 31.2204 305 36C369.178 44.9937 365.858 114.1 390.743 62.1365C434.289 -28.7915 433.965 99.5064 495.523 108.5C557.082 117.494 564.729 -4.99574 622.359 1.00001C668.462 5.79661 659.517 105.913 697.5 147.759C731.061 184.732 749.703 127.821 767.5 87.085C795.005 24.1296 880.762 241.744 925 99.3568C965.5 -31 1026.05 39.6136 1051.76 107.904C1071 159 1199.73 35.0007 1249.5 36Z" fill="#034593"/>
<rect id="Rectangle 7" y="281" width="1336" height="128" fill="#034593"/>
</g>
</svg>
