<svg width="2040" height="636" viewBox="0 0 2040 636" fill="none" xmlns="http://www.w3.org/2000/svg">
<g id="mountain_2">
<path id="mountain_2_2" d="M150.147 260.853C89.2875 262.048 42.7085 284.961 0 341.692V444.703C680 447.191 2040 450.674 2040 444.703V405.887V331.241C2040 248.59 2011.97 198.151 1985.95 163.814C1959.92 129.477 1955.92 219.052 1883.85 289.219C1857.51 314.859 1831.8 162.321 1793.76 113.055C1755.72 63.7883 1709.68 230.995 1689.66 205.615C1669.64 180.236 1643.69 19.3247 1591.56 26.4654C1493.46 39.9016 1489.46 190.686 1451.42 113.055C1384.86 -22.7896 1359.33 150.377 1265.24 163.814C1171.15 177.25 1215.19 78.7174 1127.1 87.6749C1056.64 94.8409 1037.68 144.129 1027.01 134.176C1033.01 146.119 980.561 132.086 938.92 75.9522C886.869 5.78504 732.718 246.145 614.603 75.9522C496.487 -94.2404 392.385 63.7883 314.308 141.641C256.756 199.027 226.222 259.361 150.147 260.853Z" fill="#023571"/>
<rect id="Rectangle 6" y="421" width="2040" height="215" fill="#023571"/>
</g>
</svg>
