<svg width="1341" height="340" viewBox="0 0 1341 340" fill="none" xmlns="http://www.w3.org/2000/svg">
<path id="mountain_1" d="M134.232 153.986C94.2253 154.786 28.0746 230.906 0 268.866V337.794C447 339.459 1341 341.79 1341 337.794V311.821V261.873C1341 206.569 1314.68 223.913 1297.57 200.937C1280.46 177.961 1294.94 152.987 1271.25 141C1247.56 129.013 1242.3 167.972 1217.3 135.006C1192.29 102.041 1193.61 102.041 1180.45 85.0586C1167.29 68.0764 1116.02 35.3277 1081.75 40.1057C1017.26 49.0963 1028.2 85.0586 969.889 91.0523C843.553 104.039 888.297 132.009 826.445 141C764.594 149.991 789.598 184.954 731.694 190.948C685.371 195.743 718 213 676 206C648 206 657.735 191.547 630.362 153.986C596.146 107.036 565.878 153.986 488.235 40.1057C410.591 -73.7749 344.791 91.0523 281.623 91.0523C218.455 91.0523 184.239 152.987 134.232 153.986Z" fill="#022956"/>
</svg>
